<?xml version="1.0" standalone="no"?>
<!DOCTYPE svg PUBLIC "-//W3C//DTD SVG 20010904//EN"
 "http://www.w3.org/TR/2001/REC-SVG-20010904/DTD/svg10.dtd">
<svg version="1.0" xmlns="http://www.w3.org/2000/svg"
 width="1589.000000pt" height="1589.000000pt" viewBox="0 0 1589.000000 1589.000000"
 preserveAspectRatio="xMidYMid meet">
<metadata>
Created by potrace 1.14, written by Peter Selinger 2001-2017
</metadata>
<g transform="translate(0.000000,1589.000000) scale(0.100000,-0.100000)"
fill="#000000" stroke="none">
<path d="M926 15848 c4 -18 15 -73 26 -123 10 -49 21 -101 24 -115 12 -61 60
-228 110 -388 103 -325 236 -627 422 -953 106 -187 336 -512 477 -674 110
-127 242 -262 450 -460 25 -24 33 -42 39 -85 41 -311 172 -715 287 -888 16
-24 29 -45 29 -48 0 -16 212 -293 312 -408 26 -29 28 -37 28 -126 0 -124 13
-202 55 -327 39 -116 90 -221 172 -355 49 -79 93 -140 255 -353 18 -22 17 -23
-23 -49 -83 -56 -95 -183 -22 -249 27 -23 83 -44 116 -42 33 2 34 -6 6 -31
-79 -70 -230 -277 -316 -433 -29 -53 -54 -88 -54 -78 -1 9 -3 22 -4 27 -1 6
-3 16 -4 23 -2 16 -39 -25 -174 -193 -26 -32 -154 -217 -177 -255 -13 -22 -27
-42 -30 -45 -3 -3 -11 -16 -17 -30 -7 -14 -29 -56 -50 -95 -118 -214 -228
-586 -232 -785 l-1 -35 -36 63 c-19 34 -37 62 -39 62 -2 0 -12 -16 -21 -36
l-17 -36 -18 33 c-48 93 -145 120 -231 64 -43 -29 -65 -65 -69 -115 -9 -115
89 -195 205 -166 14 3 26 4 26 1 0 -2 -12 -30 -26 -62 -139 -310 -251 -681
-280 -933 -11 -101 -13 -125 -15 -227 -2 -93 -3 -101 -18 -90 -9 7 -43 32 -74
56 -32 24 -59 42 -61 40 -2 -2 -9 -49 -16 -104 -6 -55 -13 -111 -15 -125 -2
-14 -7 -56 -10 -95 -3 -38 -8 -88 -11 -110 -32 -250 -34 -667 -3 -829 15 -82
16 -81 -50 -81 -69 0 -104 -20 -137 -79 -28 -49 -25 -113 7 -160 59 -86 163
-96 249 -22 14 11 22 17 18 12 -4 -5 -3 -15 3 -22 8 -9 6 -11 -9 -8 -16 5 -19
-2 -22 -48 -7 -96 -5 -392 3 -462 44 -362 190 -747 399 -1053 29 -43 56 -82
60 -88 4 -6 -19 -11 -65 -12 -63 -2 -208 -28 -230 -40 -5 -3 11 -17 35 -31
172 -100 297 -252 453 -547 198 -377 304 -542 458 -717 l77 -87 -29 -15 c-82
-43 -98 -174 -30 -244 28 -29 91 -55 122 -51 27 3 36 -3 82 -62 175 -222 453
-464 700 -607 83 -48 324 -161 415 -195 106 -39 254 -83 318 -93 39 -6 58 -20
30 -21 -7 -1 -53 -5 -103 -10 -172 -16 -625 -9 -755 12 -14 2 -45 6 -70 10
-25 3 -56 8 -70 10 -14 3 -40 7 -58 10 -49 8 -187 41 -264 64 l-68 20 25 -37
c73 -108 218 -247 347 -334 90 -62 280 -157 387 -195 45 -15 81 -31 81 -34 0
-11 -230 -125 -357 -178 -65 -27 -196 -77 -291 -111 -94 -35 -172 -66 -172
-70 0 -7 33 -14 195 -45 116 -22 339 -39 520 -38 120 0 388 11 422 17 10 2 57
7 105 10 48 4 98 9 110 11 13 2 61 9 108 15 47 6 123 17 170 25 47 8 103 17
125 21 49 7 199 50 240 69 58 25 260 109 332 136 79 31 166 55 228 64 22 3 65
10 95 15 30 5 80 12 110 15 30 4 57 8 60 8 3 1 34 -27 70 -62 147 -147 325
-219 538 -219 203 -1 392 57 573 173 56 36 69 41 80 30 8 -8 37 -23 65 -34 43
-16 69 -19 165 -16 63 2 126 8 140 13 19 8 38 7 63 0 26 -8 46 -8 73 0 25 8
42 8 55 1 11 -6 72 -12 137 -14 95 -3 126 0 171 16 30 10 61 25 68 33 12 12
24 8 84 -31 331 -214 727 -230 1008 -40 25 17 72 58 105 91 l60 61 80 -12 c44
-6 103 -14 130 -18 148 -20 305 -73 620 -210 66 -29 182 -60 260 -71 28 -3 53
-8 56 -10 3 -1 28 -6 55 -9 27 -4 56 -8 64 -10 18 -5 232 -32 315 -40 33 -4
74 -8 92 -10 189 -23 662 -23 813 0 14 2 50 7 80 10 30 4 64 9 75 11 11 2 31
6 45 9 52 10 66 13 110 25 25 7 38 15 30 18 -92 30 -467 174 -558 215 -123 55
-262 127 -262 137 0 3 24 14 53 24 250 88 471 221 624 378 88 89 188 214 155
194 -29 -18 -305 -79 -457 -101 -22 -4 -51 -8 -65 -11 -112 -19 -599 -27 -750
-11 -80 8 -153 25 -114 26 42 2 250 59 349 96 55 20 146 59 202 86 57 27 105
49 107 49 2 0 58 32 123 72 238 144 436 307 604 499 35 40 69 78 74 84 6 7 21
28 35 48 20 30 29 35 51 30 38 -7 90 12 126 47 67 66 59 182 -17 238 -36 26
-39 31 -24 43 38 31 168 193 238 296 80 119 162 260 271 468 163 311 260 434
430 544 l75 49 -33 11 c-51 17 -177 37 -224 36 -24 0 -43 2 -43 5 0 3 34 57
75 119 118 179 238 430 289 606 10 33 22 71 26 85 15 43 39 153 46 205 3 28 8
52 9 55 10 17 20 170 20 320 -1 209 -5 261 -22 267 -7 3 -10 9 -7 15 4 5 13 3
22 -5 49 -43 102 -53 162 -32 93 33 132 128 88 215 -33 64 -67 85 -139 85 -66
0 -65 -1 -50 82 28 143 31 530 7 723 -2 14 -7 61 -10 105 -4 44 -9 91 -11 105
-2 14 -7 52 -10 85 -6 58 -9 86 -21 190 -3 28 -8 52 -10 54 -2 2 -29 -16 -61
-40 -31 -24 -65 -49 -73 -56 -15 -10 -17 -3 -18 73 -3 95 -9 190 -17 249 -12
91 -27 172 -36 210 -6 22 -13 47 -14 55 -23 109 -78 285 -141 448 -42 110 -55
139 -95 228 -23 50 -24 57 -1 50 42 -13 70 -13 106 -1 164 56 136 289 -37 308
-67 8 -148 -47 -164 -111 -5 -23 -7 -21 -28 21 l-22 46 -27 -55 c-34 -66 -46
-75 -47 -32 0 18 -2 42 -5 53 -2 11 -6 40 -10 65 -3 25 -10 65 -16 90 -5 25
-11 52 -13 60 -32 154 -122 391 -210 550 -112 203 -421 618 -426 573 -1 -7 -3
-17 -4 -23 -1 -5 -3 -18 -4 -27 -1 -10 -21 19 -46 64 -81 151 -190 305 -311
435 -19 20 -34 39 -34 41 0 2 18 3 40 4 72 2 133 54 150 127 15 68 -21 138
-94 181 -15 9 -7 22 59 105 172 215 308 447 369 630 45 135 47 151 53 300 l5
125 115 140 c239 292 347 484 437 777 26 84 77 301 91 383 3 22 10 62 14 89 7
41 16 57 52 89 61 53 296 285 343 338 338 379 594 775 814 1259 97 214 222
588 283 850 32 134 60 273 56 277 -4 3 -295 -154 -422 -227 -22 -12 -60 -34
-85 -48 -92 -52 -249 -154 -325 -211 -95 -72 -105 -81 -196 -172 -47 -47 -107
-120 -133 -161 -46 -72 -55 -80 -219 -192 -276 -188 -386 -267 -547 -395 -94
-74 -396 -327 -436 -366 -12 -11 -57 -51 -100 -90 -43 -38 -88 -79 -100 -90
-11 -11 -43 -40 -70 -64 -248 -224 -723 -697 -983 -981 -239 -260 -284 -310
-447 -502 -108 -126 -110 -128 -219 -184 -114 -58 -290 -172 -386 -249 l-56
-45 -54 24 c-31 13 -104 36 -164 50 -66 16 -167 52 -255 91 -164 72 -246 105
-260 105 -16 0 -11 -22 20 -87 16 -35 25 -63 20 -63 -4 0 -10 4 -12 8 -7 18
-119 94 -179 121 -36 16 -101 37 -144 46 -44 8 -111 27 -150 42 -67 25 -98 38
-245 105 -56 26 -166 68 -177 68 -2 0 14 -35 36 -77 74 -149 120 -302 136
-458 18 -170 76 -315 159 -401 l51 -53 -43 -3 -43 -3 58 -91 c32 -50 63 -99
70 -110 34 -53 75 -133 88 -169 52 -152 104 -263 148 -323 l25 -33 -20 -45
c-31 -71 -87 -239 -94 -284 -8 -47 -15 -50 -39 -14 -9 14 -38 36 -63 47 -41
19 -65 22 -177 22 -134 -1 -182 -6 -260 -30 -45 -13 -46 -13 -62 13 -60 97
-162 141 -329 145 -74 1 -198 -7 -254 -18 -23 -4 -248 -50 -295 -61 -19 -4
-85 -16 -165 -29 -139 -24 -268 -9 -342 42 -57 38 -66 35 -87 -26 -27 -82 -2
-167 71 -240 28 -28 59 -53 69 -56 24 -8 24 -16 -2 -66 -18 -37 -54 -142 -65
-193 -20 -92 -34 -199 -39 -301 -13 -284 -24 -381 -50 -440 -7 -16 -19 -48
-26 -70 -7 -22 -29 -75 -50 -118 -20 -42 -40 -100 -44 -128 -4 -29 -24 -83
-45 -123 -39 -73 -70 -162 -70 -203 0 -12 -13 -44 -29 -70 -50 -82 -73 -152
-73 -223 0 -38 -6 -76 -15 -94 l-15 -29 -28 33 c-67 78 -123 207 -138 315 -11
83 -4 290 13 355 2 8 6 38 10 65 5 39 66 349 90 460 37 164 58 536 40 710 -19
188 -78 428 -143 584 l-30 71 28 39 c41 56 74 123 120 247 45 121 90 206 180
345 l61 94 -45 3 -45 3 36 32 c68 60 138 193 157 297 2 14 7 36 10 50 3 14 8
48 11 75 18 160 52 277 126 433 44 94 46 103 26 97 -33 -9 -92 -34 -194 -81
-134 -62 -269 -111 -359 -129 -99 -21 -205 -70 -278 -129 -30 -25 -58 -46 -60
-46 -2 0 7 22 20 50 13 27 24 56 24 63 0 7 5 18 12 25 34 34 -69 -2 -277 -96
-112 -51 -218 -86 -290 -98 -33 -5 -80 -21 -171 -60 -6 -3 -18 1 -25 8 -80 75
-293 217 -432 287 -83 42 -115 64 -144 100 -35 43 -215 253 -238 277 -5 6 -39
44 -75 84 -78 88 -60 68 -200 220 -267 290 -662 685 -934 935 -60 55 -121 111
-136 125 -14 14 -62 57 -106 95 -43 39 -95 84 -114 102 -45 40 -65 58 -220
188 -99 84 -315 252 -410 320 -30 22 -57 42 -60 45 -6 6 -87 62 -275 189 -142
96 -153 106 -201 180 -142 215 -399 409 -904 683 -36 20 -86 47 -112 62 -27
14 -68 37 -93 51 -25 14 -48 25 -50 25 -3 0 -2 -15 1 -32z m8230 -5735 c-22
-100 -22 -485 0 -597 2 -11 6 -37 9 -58 3 -21 7 -55 10 -76 3 -21 7 -47 9 -57
3 -11 22 -108 44 -215 80 -385 96 -602 57 -736 -22 -74 -79 -190 -116 -234
l-29 -34 -16 22 c-8 12 -33 43 -55 68 -24 28 -39 55 -39 72 -1 36 -40 130 -73
174 -15 19 -27 42 -27 50 0 50 -45 153 -98 225 -40 53 -65 100 -80 148 -12 39
-42 106 -66 150 -25 44 -82 153 -127 243 -74 144 -84 170 -87 228 -4 62 -3 66
32 111 l36 46 77 2 c130 3 205 30 277 102 33 33 106 160 106 185 0 5 -32 5
-72 1 -91 -9 -170 -9 -228 1 -40 7 -80 22 -80 30 0 11 149 100 192 115 81 27
124 17 229 -52 l26 -18 44 65 c24 36 45 66 47 66 2 0 1 -12 -2 -27z m-4670
-1918 c22 -20 32 -35 23 -35 -8 0 -31 -11 -51 -25 l-38 -25 5 27 c3 16 7 42 9
58 2 17 5 31 5 33 2 6 11 0 47 -33z m6962 -8 c1 -23 5 -50 8 -61 5 -15 1 -14
-32 8 -21 14 -45 26 -53 26 -16 0 46 66 64 69 6 0 11 -18 13 -42z m-6956 -332
c21 -8 41 -14 45 -13 5 0 22 4 38 8 17 4 41 10 55 15 14 4 22 4 18 0 -9 -10
28 -140 59 -205 37 -77 102 -159 165 -207 64 -49 103 -70 186 -98 l64 -21 2
-115 c2 -124 10 -157 63 -267 90 -185 295 -295 563 -301 66 -1 58 -11 -35 -41
-76 -24 -321 -114 -370 -135 -177 -76 -254 -112 -277 -127 -14 -10 -30 -18
-35 -18 -13 0 -216 -118 -290 -168 -207 -140 -232 -286 -71 -407 129 -97 147
-128 155 -270 9 -162 41 -233 127 -277 51 -26 155 -51 356 -84 19 -4 42 -8 50
-9 8 -2 20 -4 25 -5 6 -1 -28 -15 -75 -31 -120 -43 -300 -109 -335 -124 -143
-61 -279 -125 -323 -151 -163 -97 -224 -227 -175 -369 14 -40 41 -73 127 -160
143 -143 147 -153 192 -419 3 -16 7 -33 10 -38 3 -4 1 -8 -5 -8 -5 0 -20 15
-32 33 -13 17 -26 34 -29 37 -9 8 -194 260 -229 313 -37 55 -44 53 -80 -18
-13 -26 -25 -45 -27 -43 -2 2 -6 26 -9 54 -34 309 -93 483 -263 779 -80 139
-224 341 -327 460 -43 50 -51 64 -44 83 11 30 15 28 38 -17 39 -76 137 -108
213 -70 112 57 116 217 7 278 -34 19 -51 23 -95 18 -54 -6 -60 2 -34 38 15 20
98 232 123 315 25 81 50 179 61 245 3 17 8 40 10 52 20 100 28 356 14 473 -5
41 -10 75 -11 77 -1 1 -19 -2 -40 -6 -20 -5 -37 -6 -37 -4 0 3 17 34 39 67
140 222 265 561 333 904 l12 63 31 -35 c16 -20 47 -43 67 -51z m7003 35 c4
-25 24 -112 45 -195 34 -133 57 -206 115 -365 28 -76 124 -271 171 -346 24
-40 44 -74 44 -77 0 -3 -16 -1 -36 5 -20 5 -38 8 -40 6 -18 -19 -25 -353 -9
-473 9 -71 34 -202 46 -250 6 -22 12 -47 14 -55 13 -65 136 -385 156 -404 18
-19 8 -22 -48 -18 -48 3 -64 0 -92 -20 -57 -39 -76 -72 -76 -136 0 -44 5 -65
23 -90 49 -68 141 -88 214 -45 34 20 81 89 71 108 -2 5 5 -1 16 -15 11 -14 21
-27 20 -30 0 -3 -18 -25 -40 -50 -23 -25 -53 -61 -67 -80 -15 -19 -29 -37 -33
-40 -3 -3 -23 -30 -45 -60 -185 -254 -306 -472 -374 -670 -21 -63 -41 -126
-44 -140 -3 -14 -7 -34 -9 -45 -12 -55 -29 -169 -32 -216 -2 -30 -4 -56 -4
-59 -1 -3 -11 11 -23 30 -11 19 -27 46 -35 58 -14 23 -15 23 -34 6 -10 -9 -19
-21 -19 -26 0 -5 -68 -100 -151 -211 -98 -131 -149 -191 -144 -172 4 17 8 39
10 50 9 51 29 171 30 175 24 81 56 128 154 228 130 131 146 160 146 267 0 74
-2 84 -34 130 -67 99 -167 161 -446 275 -188 76 -238 95 -350 133 l-99 34 64
12 c61 11 179 33 245 46 93 18 168 55 204 102 30 37 48 113 55 228 8 122 29
163 119 232 95 73 97 75 118 115 54 105 3 213 -148 316 -227 154 -553 307
-922 433 -79 27 -146 51 -148 53 -2 2 18 4 44 5 290 10 482 111 578 306 45 91
63 173 63 287 l0 92 65 21 c132 45 241 128 314 238 35 53 93 204 93 242 0 28
16 41 33 27 7 -5 31 -12 54 -15 54 -6 112 20 143 62 12 18 24 31 25 29 2 -2 6
-23 10 -48z m-3330 -3149 c3 -5 2 -12 -3 -15 -5 -3 -9 1 -9 9 0 17 3 19 12 6z
m-1709 -423 l-1 -43 93 -3 92 -3 0 -164 c2 -623 -3 -1109 -10 -1060 -10 69
-37 159 -67 225 -14 30 -36 79 -49 108 -13 29 -24 58 -24 64 0 6 -2 9 -5 6 -8
-8 -23 -97 -30 -183 -4 -44 -9 -87 -10 -96 -2 -9 -6 -40 -10 -70 -8 -68 -23
-125 -42 -164 -17 -34 -82 -105 -96 -105 -24 0 2 106 49 198 27 53 51 99 52
104 6 13 -106 9 -141 -6 -82 -34 -147 -154 -205 -376 l-9 -35 -22 48 c-21 48
-25 64 -38 142 -10 58 -6 180 7 219 6 18 25 53 43 77 26 35 39 45 67 47 19 2
58 14 85 26 161 75 266 271 234 441 -11 62 -94 231 -179 365 -39 62 -100 182
-100 196 0 10 42 25 115 40 11 2 56 13 100 23 108 26 102 27 101 -21z m3156 0
c159 -37 159 -10 -4 -293 -151 -264 -169 -323 -143 -464 10 -53 61 -148 107
-197 45 -49 124 -98 178 -110 19 -4 38 -9 43 -10 4 -1 11 -2 17 -3 17 -2 69
-82 80 -121 26 -97 11 -265 -31 -359 l-21 -46 -24 90 c-45 166 -114 284 -188
319 -30 14 -146 23 -146 11 0 -2 23 -48 50 -102 35 -66 53 -115 57 -150 3 -30
1 -53 -4 -53 -5 0 -25 17 -45 38 -41 41 -73 107 -82 167 -4 22 -10 65 -15 95
-5 30 -12 89 -16 130 -3 41 -8 91 -11 110 -13 90 -13 91 -70 -38 -100 -227
-113 -317 -67 -468 21 -70 27 -109 27 -184 0 -124 -7 -153 -37 -144 -12 3 -23
7 -24 8 -3 3 -4 207 -4 969 l1 757 93 0 94 0 -2 46 -3 45 32 -6 c17 -4 88 -20
158 -37z m-3926 -770 c-1 -104 1 -116 24 -153 32 -52 64 -79 127 -110 l52 -25
-27 -28 c-15 -15 -42 -47 -60 -71 -29 -41 -32 -43 -32 -20 0 46 -39 146 -82
211 -23 35 -62 101 -85 148 -51 101 -51 101 -36 -85 4 -60 8 -166 8 -235 0
-120 -1 -127 -30 -179 -61 -110 -59 -108 -78 -90 -8 8 -27 23 -41 33 -15 11
-23 22 -18 25 24 17 54 76 58 118 5 42 2 54 -25 94 -33 49 -66 69 -124 74 -46
4 -113 -27 -136 -65 l-19 -31 -32 78 c-38 93 -122 259 -156 308 -21 32 -30 55
-21 55 2 0 23 -10 48 -22 40 -21 58 -23 194 -23 131 1 163 4 250 27 55 15 129
38 165 52 36 13 68 25 71 25 4 1 6 -50 5 -111z m4594 81 c66 -24 192 -56 246
-64 21 -4 50 -8 64 -11 34 -6 156 -5 203 1 20 3 61 14 90 25 28 11 53 20 55
20 1 0 -14 -25 -33 -56 -43 -66 -161 -307 -170 -346 -9 -35 -18 -35 -40 -2
-22 34 -88 63 -136 59 -122 -10 -188 -153 -115 -249 14 -19 26 -37 26 -40 0
-8 -63 -65 -72 -66 -3 0 -13 12 -21 28 -8 15 -27 50 -43 77 -28 48 -29 55 -29
180 0 72 4 177 9 235 9 121 9 108 7 140 -1 19 -10 6 -38 -50 -20 -41 -54 -101
-75 -133 -53 -79 -87 -153 -94 -210 l-7 -47 -30 42 c-17 24 -44 55 -60 69
l-28 27 53 24 c65 30 116 83 141 145 16 41 18 63 12 142 -7 89 -6 93 12 86 10
-4 43 -16 73 -26z m-3642 -981 c-3 -106 -4 -111 -25 -114 -30 -5 -38 25 -37
146 1 72 8 120 30 200 l29 105 3 -113 c1 -62 1 -163 0 -224z m-1337 290 c22
-2 29 -6 25 -18 -20 -65 -50 -142 -53 -134 -1 5 -13 46 -26 91 l-23 81 23 -9
c13 -5 37 -10 54 -11z m5329 -69 c-11 -45 -22 -84 -24 -86 -2 -2 -13 24 -24
59 -11 35 -23 71 -27 81 -6 14 -2 17 26 17 19 0 41 4 49 10 8 5 16 7 18 6 2
-2 -6 -41 -18 -87z m1890 -829 c0 -5 -2 -10 -4 -10 -3 0 -8 5 -11 10 -3 6 -1
10 4 10 6 0 11 -4 11 -10z m-5277 -344 c-3 -6 -11 -18 -18 -26 -18 -22 -32
-90 -28 -135 9 -114 64 -173 190 -205 l43 -11 -16 -37 c-20 -48 -68 -97 -120
-123 l-42 -20 -49 25 c-82 43 -176 39 -248 -10 -20 -13 -38 -24 -40 -24 -3 0
-5 26 -5 58 -1 48 -11 107 -34 203 -3 9 -14 49 -26 89 -25 84 -37 175 -23 183
8 5 45 9 218 23 39 3 95 9 125 13 75 9 80 9 73 -3z m1502 -1 c39 -4 84 -8 100
-10 56 -7 180 -18 199 -17 17 1 18 -5 13 -56 -3 -31 -21 -113 -41 -182 -23
-79 -39 -157 -43 -211 l-6 -87 -60 31 c-81 41 -164 43 -231 3 l-45 -26 -44 20
c-54 25 -101 73 -122 123 -17 41 -17 41 46 51 59 10 128 60 149 110 35 78 27
201 -16 237 -21 17 -17 30 9 25 12 -3 54 -8 92 -11z"/>
</g>
</svg>
