<svg xmlns="http://www.w3.org/2000/svg" version="1.1" xmlns:xlink="http://www.w3.org/1999/xlink" xmlns:svgjs="http://svgjs.com/svgjs" width="1437" height="560" preserveAspectRatio="none" viewBox="0 0 1437 560"><g mask="url(&quot;#SvgjsMask1019&quot;)" fill="none"><rect width="1437" height="560" x="0" y="0" fill="url(#SvgjsLinearGradient1020)"></rect><path d="M-69.52 495.31L-69.52 495.31" stroke="#132e65" stroke-width="1.5"></path><path d="M-69.52 495.31L59.69 522.72" stroke="#132e65" stroke-width="1.5"></path><path d="M-69.52 495.31L-93.71 663.28" stroke="#132e65" stroke-width="1.5"></path><path d="M-69.52 495.31L46.66 668.27" stroke="#132e65" stroke-width="1.5"></path><path d="M-69.52 495.31L112.14 360.91" stroke="#132e65" stroke-width="1.5"></path><path d="M-69.52 495.31L217.37 398.16" stroke="#132e65" stroke-width="1.5"></path><path d="M-69.52 495.31L239.54 514.3" stroke="#132e65" stroke-width="1.5"></path><path d="M-93.71 663.28L-93.71 663.28" stroke="#132e65" stroke-width="1.5"></path><path d="M-93.71 663.28L46.66 668.27" stroke="#132e65" stroke-width="1.5"></path><path d="M-93.71 663.28L59.69 522.72" stroke="#132e65" stroke-width="1.5"></path><path d="M-93.71 663.28L243.32 642.69" stroke="#132e65" stroke-width="1.5"></path><path d="M112.14 360.91L112.14 360.91" stroke="#132e65" stroke-width="1.5"></path><path d="M112.14 360.91L217.37 398.16" stroke="#132e65" stroke-width="1.5"></path><path d="M112.14 360.91L59.69 522.72" stroke="#132e65" stroke-width="1.5"></path><path d="M112.14 360.91L239.54 514.3" stroke="#132e65" stroke-width="1.5"></path><path d="M59.69 522.72L59.69 522.72" stroke="#132e65" stroke-width="1.5"></path><path d="M59.69 522.72L46.66 668.27" stroke="#132e65" stroke-width="1.5"></path><path d="M46.66 668.27L46.66 668.27" stroke="#132e65" stroke-width="1.5"></path><path d="M46.66 668.27L243.32 642.69" stroke="#132e65" stroke-width="1.5"></path><path d="M217.37 398.16L217.37 398.16" stroke="#132e65" stroke-width="1.5"></path><path d="M217.37 398.16L239.54 514.3" stroke="#132e65" stroke-width="1.5"></path><path d="M217.37 398.16L361.64 359.71" stroke="#132e65" stroke-width="1.5"></path><path d="M217.37 398.16L359.57 495.29" stroke="#132e65" stroke-width="1.5"></path><path d="M239.54 514.3L239.54 514.3" stroke="#132e65" stroke-width="1.5"></path><path d="M239.54 514.3L359.57 495.29" stroke="#132e65" stroke-width="1.5"></path><path d="M239.54 514.3L243.32 642.69" stroke="#132e65" stroke-width="1.5"></path><path d="M239.54 514.3L59.69 522.72" stroke="#132e65" stroke-width="1.5"></path><path d="M243.32 642.69L243.32 642.69" stroke="#132e65" stroke-width="1.5"></path><path d="M243.32 642.69L412.36 678.19" stroke="#132e65" stroke-width="1.5"></path><path d="M361.64 359.71L361.64 359.71" stroke="#132e65" stroke-width="1.5"></path><path d="M361.64 359.71L359.57 495.29" stroke="#132e65" stroke-width="1.5"></path><path d="M361.64 359.71L239.54 514.3" stroke="#132e65" stroke-width="1.5"></path><path d="M361.64 359.71L543.19 495.85" stroke="#132e65" stroke-width="1.5"></path><path d="M361.64 359.71L112.14 360.91" stroke="#132e65" stroke-width="1.5"></path><path d="M361.64 359.71L243.32 642.69" stroke="#132e65" stroke-width="1.5"></path><path d="M359.57 495.29L359.57 495.29" stroke="#132e65" stroke-width="1.5"></path><path d="M359.57 495.29L543.19 495.85" stroke="#132e65" stroke-width="1.5"></path><path d="M359.57 495.29L243.32 642.69" stroke="#132e65" stroke-width="1.5"></path><path d="M412.36 678.19L412.36 678.19" stroke="#132e65" stroke-width="1.5"></path><path d="M412.36 678.19L538.53 657.91" stroke="#132e65" stroke-width="1.5"></path><path d="M412.36 678.19L359.57 495.29" stroke="#132e65" stroke-width="1.5"></path><path d="M543.19 495.85L543.19 495.85" stroke="#132e65" stroke-width="1.5"></path><path d="M543.19 495.85L654.5 556.72" stroke="#132e65" stroke-width="1.5"></path><path d="M543.19 495.85L538.53 657.91" stroke="#132e65" stroke-width="1.5"></path><path d="M543.19 495.85L688.09 395.43" stroke="#132e65" stroke-width="1.5"></path><path d="M543.19 495.85L412.36 678.19" stroke="#132e65" stroke-width="1.5"></path><path d="M538.53 657.91L538.53 657.91" stroke="#132e65" stroke-width="1.5"></path><path d="M538.53 657.91L654.5 556.72" stroke="#132e65" stroke-width="1.5"></path><path d="M538.53 657.91L359.57 495.29" stroke="#132e65" stroke-width="1.5"></path><path d="M538.53 657.91L814.55 647.56" stroke="#132e65" stroke-width="1.5"></path><path d="M691.74 228.93L691.74 228.93" stroke="#132e65" stroke-width="1.5"></path><path d="M691.74 228.93L688.09 395.43" stroke="#132e65" stroke-width="1.5"></path><path d="M691.74 228.93L858.98 229.64" stroke="#132e65" stroke-width="1.5"></path><path d="M691.74 228.93L832.71 387.36" stroke="#132e65" stroke-width="1.5"></path><path d="M691.74 228.93L814.09 491.97" stroke="#132e65" stroke-width="1.5"></path><path d="M691.74 228.93L543.19 495.85" stroke="#132e65" stroke-width="1.5"></path><path d="M688.09 395.43L688.09 395.43" stroke="#132e65" stroke-width="1.5"></path><path d="M688.09 395.43L832.71 387.36" stroke="#132e65" stroke-width="1.5"></path><path d="M688.09 395.43L814.09 491.97" stroke="#132e65" stroke-width="1.5"></path><path d="M688.09 395.43L654.5 556.72" stroke="#132e65" stroke-width="1.5"></path><path d="M654.5 556.72L654.5 556.72" stroke="#132e65" stroke-width="1.5"></path><path d="M654.5 556.72L814.09 491.97" stroke="#132e65" stroke-width="1.5"></path><path d="M654.5 556.72L814.55 647.56" stroke="#132e65" stroke-width="1.5"></path><path d="M654.5 556.72L832.71 387.36" stroke="#132e65" stroke-width="1.5"></path><path d="M858.98 229.64L858.98 229.64" stroke="#132e65" stroke-width="1.5"></path><path d="M858.98 229.64L1003.96 200.74" stroke="#132e65" stroke-width="1.5"></path><path d="M858.98 229.64L832.71 387.36" stroke="#132e65" stroke-width="1.5"></path><path d="M858.98 229.64L1001.17 111.01" stroke="#132e65" stroke-width="1.5"></path><path d="M858.98 229.64L962.49 385.2" stroke="#132e65" stroke-width="1.5"></path><path d="M832.71 387.36L832.71 387.36" stroke="#132e65" stroke-width="1.5"></path><path d="M832.71 387.36L814.09 491.97" stroke="#132e65" stroke-width="1.5"></path><path d="M832.71 387.36L962.49 385.2" stroke="#132e65" stroke-width="1.5"></path><path d="M832.71 387.36L958.02 505.5" stroke="#132e65" stroke-width="1.5"></path><path d="M814.09 491.97L814.09 491.97" stroke="#132e65" stroke-width="1.5"></path><path d="M814.09 491.97L958.02 505.5" stroke="#132e65" stroke-width="1.5"></path><path d="M814.09 491.97L814.55 647.56" stroke="#132e65" stroke-width="1.5"></path><path d="M814.55 647.56L814.55 647.56" stroke="#132e65" stroke-width="1.5"></path><path d="M814.55 647.56L989.72 644.56" stroke="#132e65" stroke-width="1.5"></path><path d="M981.6 -59.06L981.6 -59.06" stroke="#132e65" stroke-width="1.5"></path><path d="M981.6 -59.06L1120.03 -111.08" stroke="#132e65" stroke-width="1.5"></path><path d="M981.6 -59.06L1001.17 111.01" stroke="#132e65" stroke-width="1.5"></path><path d="M981.6 -59.06L1150 55.57" stroke="#132e65" stroke-width="1.5"></path><path d="M981.6 -59.06L1003.96 200.74" stroke="#132e65" stroke-width="1.5"></path><path d="M1001.17 111.01L1001.17 111.01" stroke="#132e65" stroke-width="1.5"></path><path d="M1001.17 111.01L1003.96 200.74" stroke="#132e65" stroke-width="1.5"></path><path d="M1001.17 111.01L1099.99 218.23" stroke="#132e65" stroke-width="1.5"></path><path d="M1001.17 111.01L1150 55.57" stroke="#132e65" stroke-width="1.5"></path><path d="M1001.17 111.01L1244.1 103.76" stroke="#132e65" stroke-width="1.5"></path><path d="M1003.96 200.74L1003.96 200.74" stroke="#132e65" stroke-width="1.5"></path><path d="M1003.96 200.74L1099.99 218.23" stroke="#132e65" stroke-width="1.5"></path><path d="M1003.96 200.74L962.49 385.2" stroke="#132e65" stroke-width="1.5"></path><path d="M1003.96 200.74L1150 55.57" stroke="#132e65" stroke-width="1.5"></path><path d="M962.49 385.2L962.49 385.2" stroke="#132e65" stroke-width="1.5"></path><path d="M962.49 385.2L958.02 505.5" stroke="#132e65" stroke-width="1.5"></path><path d="M962.49 385.2L814.09 491.97" stroke="#132e65" stroke-width="1.5"></path><path d="M958.02 505.5L958.02 505.5" stroke="#132e65" stroke-width="1.5"></path><path d="M958.02 505.5L989.72 644.56" stroke="#132e65" stroke-width="1.5"></path><path d="M958.02 505.5L814.55 647.56" stroke="#132e65" stroke-width="1.5"></path><path d="M958.02 505.5L1109.12 652.86" stroke="#132e65" stroke-width="1.5"></path><path d="M989.72 644.56L989.72 644.56" stroke="#132e65" stroke-width="1.5"></path><path d="M989.72 644.56L1109.12 652.86" stroke="#132e65" stroke-width="1.5"></path><path d="M989.72 644.56L814.09 491.97" stroke="#132e65" stroke-width="1.5"></path><path d="M989.72 644.56L1244.52 675.63" stroke="#132e65" stroke-width="1.5"></path><path d="M1120.03 -111.08L1120.03 -111.08" stroke="#132e65" stroke-width="1.5"></path><path d="M1120.03 -111.08L1150 55.57" stroke="#132e65" stroke-width="1.5"></path><path d="M1150 55.57L1150 55.57" stroke="#132e65" stroke-width="1.5"></path><path d="M1150 55.57L1244.1 103.76" stroke="#132e65" stroke-width="1.5"></path><path d="M1150 55.57L1099.99 218.23" stroke="#132e65" stroke-width="1.5"></path><path d="M1150 55.57L1290.71 -66.67" stroke="#132e65" stroke-width="1.5"></path><path d="M1099.99 218.23L1099.99 218.23" stroke="#132e65" stroke-width="1.5"></path><path d="M1161.39 405.1L1161.39 405.1" stroke="#132e65" stroke-width="1.5"></path><path d="M1161.39 405.1L1290.71 384.72" stroke="#132e65" stroke-width="1.5"></path><path d="M1161.39 405.1L1284.29 262.09" stroke="#132e65" stroke-width="1.5"></path><path d="M1161.39 405.1L1099.99 218.23" stroke="#132e65" stroke-width="1.5"></path><path d="M1161.39 405.1L962.49 385.2" stroke="#132e65" stroke-width="1.5"></path><path d="M1161.39 405.1L958.02 505.5" stroke="#132e65" stroke-width="1.5"></path><path d="M1109.12 652.86L1109.12 652.86" stroke="#132e65" stroke-width="1.5"></path><path d="M1109.12 652.86L1244.52 675.63" stroke="#132e65" stroke-width="1.5"></path><path d="M1290.71 -66.67L1290.71 -66.67" stroke="#132e65" stroke-width="1.5"></path><path d="M1290.71 -66.67L1429.58 -37.73" stroke="#132e65" stroke-width="1.5"></path><path d="M1290.71 -66.67L1120.03 -111.08" stroke="#132e65" stroke-width="1.5"></path><path d="M1290.71 -66.67L1244.1 103.76" stroke="#132e65" stroke-width="1.5"></path><path d="M1244.1 103.76L1244.1 103.76" stroke="#132e65" stroke-width="1.5"></path><path d="M1244.1 103.76L1284.29 262.09" stroke="#132e65" stroke-width="1.5"></path><path d="M1244.1 103.76L1413.88 97.04" stroke="#132e65" stroke-width="1.5"></path><path d="M1284.29 262.09L1284.29 262.09" stroke="#132e65" stroke-width="1.5"></path><path d="M1284.29 262.09L1290.71 384.72" stroke="#132e65" stroke-width="1.5"></path><path d="M1290.71 384.72L1290.71 384.72" stroke="#132e65" stroke-width="1.5"></path><path d="M1290.71 384.72L1444.61 400.12" stroke="#132e65" stroke-width="1.5"></path><path d="M1290.71 384.72L1461.38 505.24" stroke="#132e65" stroke-width="1.5"></path><path d="M1290.71 384.72L1099.99 218.23" stroke="#132e65" stroke-width="1.5"></path><path d="M1244.52 675.63L1244.52 675.63" stroke="#132e65" stroke-width="1.5"></path><path d="M1244.52 675.63L1423.88 701.88" stroke="#132e65" stroke-width="1.5"></path><path d="M1244.52 675.63L1461.38 505.24" stroke="#132e65" stroke-width="1.5"></path><path d="M1244.52 675.63L1161.39 405.1" stroke="#132e65" stroke-width="1.5"></path><path d="M1429.58 -37.73L1429.58 -37.73" stroke="#132e65" stroke-width="1.5"></path><path d="M1429.58 -37.73L1548.7 -60.31" stroke="#132e65" stroke-width="1.5"></path><path d="M1429.58 -37.73L1413.88 97.04" stroke="#132e65" stroke-width="1.5"></path><path d="M1413.88 97.04L1413.88 97.04" stroke="#132e65" stroke-width="1.5"></path><path d="M1413.88 97.04L1609.15 91.4" stroke="#132e65" stroke-width="1.5"></path><path d="M1413.88 97.04L1290.71 -66.67" stroke="#132e65" stroke-width="1.5"></path><path d="M1444.61 400.12L1444.61 400.12" stroke="#132e65" stroke-width="1.5"></path><path d="M1444.61 400.12L1461.38 505.24" stroke="#132e65" stroke-width="1.5"></path><path d="M1461.38 505.24L1461.38 505.24" stroke="#132e65" stroke-width="1.5"></path><path d="M1461.38 505.24L1537.58 542.06" stroke="#132e65" stroke-width="1.5"></path><path d="M1461.38 505.24L1545.57 645.42" stroke="#132e65" stroke-width="1.5"></path><path d="M1461.38 505.24L1608.99 400.16" stroke="#132e65" stroke-width="1.5"></path><path d="M1461.38 505.24L1423.88 701.88" stroke="#132e65" stroke-width="1.5"></path><path d="M1423.88 701.88L1423.88 701.88" stroke="#132e65" stroke-width="1.5"></path><path d="M1423.88 701.88L1545.57 645.42" stroke="#132e65" stroke-width="1.5"></path><path d="M1423.88 701.88L1537.58 542.06" stroke="#132e65" stroke-width="1.5"></path><path d="M1423.88 701.88L1444.61 400.12" stroke="#132e65" stroke-width="1.5"></path><path d="M1423.88 701.88L1109.12 652.86" stroke="#132e65" stroke-width="1.5"></path><path d="M1548.7 -60.31L1548.7 -60.31" stroke="#132e65" stroke-width="1.5"></path><path d="M1548.7 -60.31L1609.15 91.4" stroke="#132e65" stroke-width="1.5"></path><path d="M1548.7 -60.31L1413.88 97.04" stroke="#132e65" stroke-width="1.5"></path><path d="M1609.15 91.4L1609.15 91.4" stroke="#132e65" stroke-width="1.5"></path><path d="M1609.15 91.4L1604.96 192.73" stroke="#132e65" stroke-width="1.5"></path><path d="M1609.15 91.4L1429.58 -37.73" stroke="#132e65" stroke-width="1.5"></path><path d="M1609.15 91.4L1608.99 400.16" stroke="#132e65" stroke-width="1.5"></path><path d="M1609.15 91.4L1444.61 400.12" stroke="#132e65" stroke-width="1.5"></path><path d="M1604.96 192.73L1604.96 192.73" stroke="#132e65" stroke-width="1.5"></path><path d="M1604.96 192.73L1608.99 400.16" stroke="#132e65" stroke-width="1.5"></path><path d="M1604.96 192.73L1413.88 97.04" stroke="#132e65" stroke-width="1.5"></path><path d="M1604.96 192.73L1548.7 -60.31" stroke="#132e65" stroke-width="1.5"></path><path d="M1604.96 192.73L1444.61 400.12" stroke="#132e65" stroke-width="1.5"></path><path d="M1604.96 192.73L1429.58 -37.73" stroke="#132e65" stroke-width="1.5"></path><path d="M1608.99 400.16L1608.99 400.16" stroke="#132e65" stroke-width="1.5"></path><path d="M1608.99 400.16L1537.58 542.06" stroke="#132e65" stroke-width="1.5"></path><path d="M1608.99 400.16L1444.61 400.12" stroke="#132e65" stroke-width="1.5"></path><path d="M1537.58 542.06L1537.58 542.06" stroke="#132e65" stroke-width="1.5"></path><path d="M1537.58 542.06L1545.57 645.42" stroke="#132e65" stroke-width="1.5"></path><path d="M1537.58 542.06L1444.61 400.12" stroke="#132e65" stroke-width="1.5"></path><path d="M1545.57 645.42L1545.57 645.42" stroke="#132e65" stroke-width="1.5"></path><circle r="5" cx="-69.52" cy="495.31" fill="#132e65"></circle><circle r="5" cx="-93.71" cy="663.28" fill="#132e65"></circle><circle r="5" cx="112.14" cy="360.91" fill="#132e65"></circle><circle r="5" cx="59.69" cy="522.72" fill="#132e65"></circle><circle r="5" cx="46.66" cy="668.27" fill="#132e65"></circle><circle r="5" cx="217.37" cy="398.16" fill="#132e65"></circle><circle r="5" cx="239.54" cy="514.3" fill="#132e65"></circle><circle r="5" cx="243.32" cy="642.69" fill="#132e65"></circle><circle r="5" cx="361.64" cy="359.71" fill="#132e65"></circle><circle r="5" cx="359.57" cy="495.29" fill="#132e65"></circle><circle r="5" cx="412.36" cy="678.19" fill="#132e65"></circle><circle r="5" cx="543.19" cy="495.85" fill="#132e65"></circle><circle r="5" cx="538.53" cy="657.91" fill="#132e65"></circle><circle r="5" cx="691.74" cy="228.93" fill="#132e65"></circle><circle r="5" cx="688.09" cy="395.43" fill="#132e65"></circle><circle r="5" cx="654.5" cy="556.72" fill="#132e65"></circle><circle r="5" cx="858.98" cy="229.64" fill="#132e65"></circle><circle r="5" cx="832.71" cy="387.36" fill="#132e65"></circle><circle r="5" cx="814.09" cy="491.97" fill="#132e65"></circle><circle r="5" cx="814.55" cy="647.56" fill="#132e65"></circle><circle r="5" cx="981.6" cy="-59.06" fill="#132e65"></circle><circle r="5" cx="1001.17" cy="111.01" fill="#132e65"></circle><circle r="5" cx="1003.96" cy="200.74" fill="#132e65"></circle><circle r="5" cx="962.49" cy="385.2" fill="#132e65"></circle><circle r="5" cx="958.02" cy="505.5" fill="#132e65"></circle><circle r="5" cx="989.72" cy="644.56" fill="#132e65"></circle><circle r="5" cx="1120.03" cy="-111.08" fill="#132e65"></circle><circle r="5" cx="1150" cy="55.57" fill="#132e65"></circle><circle r="5" cx="1099.99" cy="218.23" fill="#132e65"></circle><circle r="5" cx="1161.39" cy="405.1" fill="#132e65"></circle><circle r="5" cx="1109.12" cy="652.86" fill="#132e65"></circle><circle r="5" cx="1290.71" cy="-66.67" fill="#132e65"></circle><circle r="5" cx="1244.1" cy="103.76" fill="#132e65"></circle><circle r="5" cx="1284.29" cy="262.09" fill="#132e65"></circle><circle r="5" cx="1290.71" cy="384.72" fill="#132e65"></circle><circle r="5" cx="1244.52" cy="675.63" fill="#132e65"></circle><circle r="5" cx="1429.58" cy="-37.73" fill="#132e65"></circle><circle r="5" cx="1413.88" cy="97.04" fill="#132e65"></circle><circle r="5" cx="1444.61" cy="400.12" fill="#132e65"></circle><circle r="5" cx="1461.38" cy="505.24" fill="#132e65"></circle><circle r="5" cx="1423.88" cy="701.88" fill="#132e65"></circle><circle r="5" cx="1548.7" cy="-60.31" fill="#132e65"></circle><circle r="5" cx="1609.15" cy="91.4" fill="#132e65"></circle><circle r="5" cx="1604.96" cy="192.73" fill="#132e65"></circle><circle r="5" cx="1608.99" cy="400.16" fill="#132e65"></circle><circle r="5" cx="1537.58" cy="542.06" fill="#132e65"></circle><circle r="5" cx="1545.57" cy="645.42" fill="#132e65"></circle><path d="M653.75 499.03L653.75 499.03" stroke="hsl(228.5, 77.2%, 51.5%)" stroke-width="1.5"></path><path d="M653.75 499.03L703.75 398.58" stroke="hsl(228.5, 77.2%, 51.5%)" stroke-width="1.5"></path><path d="M653.75 499.03L530.48 490.13" stroke="hsl(228.5, 77.2%, 51.5%)" stroke-width="1.5"></path><path d="M653.75 499.03L811.92 504.12" stroke="hsl(228.5, 77.2%, 51.5%)" stroke-width="1.5"></path><path d="M653.75 499.03L641.49 685.94" stroke="hsl(228.5, 77.2%, 51.5%)" stroke-width="1.5"></path><path d="M641.49 685.94L641.49 685.94" stroke="hsl(228.5, 77.2%, 51.5%)" stroke-width="1.5"></path><path d="M641.49 685.94L519.52 643.74" stroke="hsl(228.5, 77.2%, 51.5%)" stroke-width="1.5"></path><path d="M641.49 685.94L790.46 667.14" stroke="hsl(228.5, 77.2%, 51.5%)" stroke-width="1.5"></path><path d="M1415.84 -50.43L1415.84 -50.43" stroke="hsl(228.5, 77.2%, 51.5%)" stroke-width="1.5"></path><path d="M1415.84 -50.43L1413.4 39.76" stroke="hsl(228.5, 77.2%, 51.5%)" stroke-width="1.5"></path><path d="M1459.1 236.26L1459.1 236.26" stroke="hsl(228.5, 77.2%, 51.5%)" stroke-width="1.5"></path><path d="M1459.1 236.26L1575.06 213.65" stroke="hsl(228.5, 77.2%, 51.5%)" stroke-width="1.5"></path><path d="M1459.1 236.26L1438.9 378.16" stroke="hsl(228.5, 77.2%, 51.5%)" stroke-width="1.5"></path><path d="M1459.1 236.26L1552.01 79.19" stroke="hsl(228.5, 77.2%, 51.5%)" stroke-width="1.5"></path><path d="M1459.1 236.26L1413.4 39.76" stroke="hsl(228.5, 77.2%, 51.5%)" stroke-width="1.5"></path><path d="M1609.56 550.02L1609.56 550.02" stroke="hsl(228.5, 77.2%, 51.5%)" stroke-width="1.5"></path><path d="M1609.56 550.02L1580.73 650.42" stroke="hsl(228.5, 77.2%, 51.5%)" stroke-width="1.5"></path><path d="M1609.56 550.02L1587.86 406.24" stroke="hsl(228.5, 77.2%, 51.5%)" stroke-width="1.5"></path><path d="M1609.56 550.02L1401.53 488.93" stroke="hsl(228.5, 77.2%, 51.5%)" stroke-width="1.5"></path><path d="M1609.56 550.02L1398.54 645.33" stroke="hsl(228.5, 77.2%, 51.5%)" stroke-width="1.5"></path><path d="M1609.56 550.02L1438.9 378.16" stroke="hsl(228.5, 77.2%, 51.5%)" stroke-width="1.5"></path><path d="M1609.56 550.02L1304.81 667.4" stroke="hsl(228.5, 77.2%, 51.5%)" stroke-width="1.5"></path><path d="M1580.73 650.42L1580.73 650.42" stroke="hsl(228.5, 77.2%, 51.5%)" stroke-width="1.5"></path><path d="M1580.73 650.42L1398.54 645.33" stroke="hsl(228.5, 77.2%, 51.5%)" stroke-width="1.5"></path><path d="M1580.73 650.42L1401.53 488.93" stroke="hsl(228.5, 77.2%, 51.5%)" stroke-width="1.5"></path><path d="M1580.73 650.42L1587.86 406.24" stroke="hsl(228.5, 77.2%, 51.5%)" stroke-width="1.5"></path><path d="M-39.03 545.05L-39.03 545.05" stroke="hsl(228.5, 77.2%, 51.5%)" stroke-width="1.5"></path><path d="M-39.03 545.05L71.68 491.57" stroke="hsl(228.5, 77.2%, 51.5%)" stroke-width="1.5"></path><path d="M-39.03 545.05L41.77 668.31" stroke="hsl(228.5, 77.2%, 51.5%)" stroke-width="1.5"></path><path d="M-39.03 545.05L244.9 506.6" stroke="hsl(228.5, 77.2%, 51.5%)" stroke-width="1.5"></path><path d="M-39.03 545.05L255.9 638.46" stroke="hsl(228.5, 77.2%, 51.5%)" stroke-width="1.5"></path><path d="M-39.03 545.05L405.22 502.88" stroke="hsl(228.5, 77.2%, 51.5%)" stroke-width="1.5"></path><path d="M-39.03 545.05L404.39 693.63" stroke="hsl(228.5, 77.2%, 51.5%)" stroke-width="1.5"></path><path d="M71.68 491.57L71.68 491.57" stroke="hsl(228.5, 77.2%, 51.5%)" stroke-width="1.5"></path><path d="M71.68 491.57L244.9 506.6" stroke="hsl(228.5, 77.2%, 51.5%)" stroke-width="1.5"></path><path d="M71.68 491.57L41.77 668.31" stroke="hsl(228.5, 77.2%, 51.5%)" stroke-width="1.5"></path><path d="M41.77 668.31L41.77 668.31" stroke="hsl(228.5, 77.2%, 51.5%)" stroke-width="1.5"></path><path d="M244.9 506.6L244.9 506.6" stroke="hsl(228.5, 77.2%, 51.5%)" stroke-width="1.5"></path><path d="M244.9 506.6L255.9 638.46" stroke="hsl(228.5, 77.2%, 51.5%)" stroke-width="1.5"></path><path d="M244.9 506.6L405.22 502.88" stroke="hsl(228.5, 77.2%, 51.5%)" stroke-width="1.5"></path><path d="M244.9 506.6L404.39 693.63" stroke="hsl(228.5, 77.2%, 51.5%)" stroke-width="1.5"></path><path d="M244.9 506.6L41.77 668.31" stroke="hsl(228.5, 77.2%, 51.5%)" stroke-width="1.5"></path><path d="M255.9 638.46L255.9 638.46" stroke="hsl(228.5, 77.2%, 51.5%)" stroke-width="1.5"></path><path d="M255.9 638.46L404.39 693.63" stroke="hsl(228.5, 77.2%, 51.5%)" stroke-width="1.5"></path><path d="M255.9 638.46L405.22 502.88" stroke="hsl(228.5, 77.2%, 51.5%)" stroke-width="1.5"></path><path d="M405.22 502.88L405.22 502.88" stroke="hsl(228.5, 77.2%, 51.5%)" stroke-width="1.5"></path><path d="M405.22 502.88L530.48 490.13" stroke="hsl(228.5, 77.2%, 51.5%)" stroke-width="1.5"></path><path d="M404.39 693.63L404.39 693.63" stroke="hsl(228.5, 77.2%, 51.5%)" stroke-width="1.5"></path><path d="M404.39 693.63L519.52 643.74" stroke="hsl(228.5, 77.2%, 51.5%)" stroke-width="1.5"></path><path d="M404.39 693.63L405.22 502.88" stroke="hsl(228.5, 77.2%, 51.5%)" stroke-width="1.5"></path><path d="M404.39 693.63L641.49 685.94" stroke="hsl(228.5, 77.2%, 51.5%)" stroke-width="1.5"></path><path d="M530.48 490.13L530.48 490.13" stroke="hsl(228.5, 77.2%, 51.5%)" stroke-width="1.5"></path><path d="M530.48 490.13L519.52 643.74" stroke="hsl(228.5, 77.2%, 51.5%)" stroke-width="1.5"></path><path d="M530.48 490.13L703.75 398.58" stroke="hsl(228.5, 77.2%, 51.5%)" stroke-width="1.5"></path><path d="M530.48 490.13L641.49 685.94" stroke="hsl(228.5, 77.2%, 51.5%)" stroke-width="1.5"></path><path d="M519.52 643.74L519.52 643.74" stroke="hsl(228.5, 77.2%, 51.5%)" stroke-width="1.5"></path><path d="M519.52 643.74L405.22 502.88" stroke="hsl(228.5, 77.2%, 51.5%)" stroke-width="1.5"></path><path d="M703.75 398.58L703.75 398.58" stroke="hsl(228.5, 77.2%, 51.5%)" stroke-width="1.5"></path><path d="M703.75 398.58L811.92 504.12" stroke="hsl(228.5, 77.2%, 51.5%)" stroke-width="1.5"></path><path d="M703.75 398.58L847.71 340.24" stroke="hsl(228.5, 77.2%, 51.5%)" stroke-width="1.5"></path><path d="M703.75 398.58L973.15 410.91" stroke="hsl(228.5, 77.2%, 51.5%)" stroke-width="1.5"></path><path d="M703.75 398.58L790.46 667.14" stroke="hsl(228.5, 77.2%, 51.5%)" stroke-width="1.5"></path><path d="M847.71 340.24L847.71 340.24" stroke="hsl(228.5, 77.2%, 51.5%)" stroke-width="1.5"></path><path d="M847.71 340.24L973.15 410.91" stroke="hsl(228.5, 77.2%, 51.5%)" stroke-width="1.5"></path><path d="M847.71 340.24L811.92 504.12" stroke="hsl(228.5, 77.2%, 51.5%)" stroke-width="1.5"></path><path d="M811.92 504.12L811.92 504.12" stroke="hsl(228.5, 77.2%, 51.5%)" stroke-width="1.5"></path><path d="M790.46 667.14L790.46 667.14" stroke="hsl(228.5, 77.2%, 51.5%)" stroke-width="1.5"></path><path d="M790.46 667.14L939 654.98" stroke="hsl(228.5, 77.2%, 51.5%)" stroke-width="1.5"></path><path d="M790.46 667.14L811.92 504.12" stroke="hsl(228.5, 77.2%, 51.5%)" stroke-width="1.5"></path><path d="M790.46 667.14L653.75 499.03" stroke="hsl(228.5, 77.2%, 51.5%)" stroke-width="1.5"></path><path d="M973.15 410.91L973.15 410.91" stroke="hsl(228.5, 77.2%, 51.5%)" stroke-width="1.5"></path><path d="M973.15 410.91L972.69 530.75" stroke="hsl(228.5, 77.2%, 51.5%)" stroke-width="1.5"></path><path d="M973.15 410.91L1131.38 362.56" stroke="hsl(228.5, 77.2%, 51.5%)" stroke-width="1.5"></path><path d="M973.15 410.91L1129.52 495.46" stroke="hsl(228.5, 77.2%, 51.5%)" stroke-width="1.5"></path><path d="M973.15 410.91L811.92 504.12" stroke="hsl(228.5, 77.2%, 51.5%)" stroke-width="1.5"></path><path d="M972.69 530.75L972.69 530.75" stroke="hsl(228.5, 77.2%, 51.5%)" stroke-width="1.5"></path><path d="M972.69 530.75L939 654.98" stroke="hsl(228.5, 77.2%, 51.5%)" stroke-width="1.5"></path><path d="M972.69 530.75L1129.52 495.46" stroke="hsl(228.5, 77.2%, 51.5%)" stroke-width="1.5"></path><path d="M972.69 530.75L811.92 504.12" stroke="hsl(228.5, 77.2%, 51.5%)" stroke-width="1.5"></path><path d="M972.69 530.75L1137.86 681.44" stroke="hsl(228.5, 77.2%, 51.5%)" stroke-width="1.5"></path><path d="M972.69 530.75L790.46 667.14" stroke="hsl(228.5, 77.2%, 51.5%)" stroke-width="1.5"></path><path d="M939 654.98L939 654.98" stroke="hsl(228.5, 77.2%, 51.5%)" stroke-width="1.5"></path><path d="M939 654.98L811.92 504.12" stroke="hsl(228.5, 77.2%, 51.5%)" stroke-width="1.5"></path><path d="M939 654.98L1137.86 681.44" stroke="hsl(228.5, 77.2%, 51.5%)" stroke-width="1.5"></path><path d="M1160.96 47.27L1160.96 47.27" stroke="hsl(228.5, 77.2%, 51.5%)" stroke-width="1.5"></path><path d="M1160.96 47.27L1246.64 105.12" stroke="hsl(228.5, 77.2%, 51.5%)" stroke-width="1.5"></path><path d="M1160.96 47.27L1238.26 -93.6" stroke="hsl(228.5, 77.2%, 51.5%)" stroke-width="1.5"></path><path d="M1160.96 47.27L1257.3 195.37" stroke="hsl(228.5, 77.2%, 51.5%)" stroke-width="1.5"></path><path d="M1160.96 47.27L1158.45 238.81" stroke="hsl(228.5, 77.2%, 51.5%)" stroke-width="1.5"></path><path d="M1160.96 47.27L1413.4 39.76" stroke="hsl(228.5, 77.2%, 51.5%)" stroke-width="1.5"></path><path d="M1158.45 238.81L1158.45 238.81" stroke="hsl(228.5, 77.2%, 51.5%)" stroke-width="1.5"></path><path d="M1158.45 238.81L1257.3 195.37" stroke="hsl(228.5, 77.2%, 51.5%)" stroke-width="1.5"></path><path d="M1158.45 238.81L1131.38 362.56" stroke="hsl(228.5, 77.2%, 51.5%)" stroke-width="1.5"></path><path d="M1158.45 238.81L1246.64 105.12" stroke="hsl(228.5, 77.2%, 51.5%)" stroke-width="1.5"></path><path d="M1158.45 238.81L973.15 410.91" stroke="hsl(228.5, 77.2%, 51.5%)" stroke-width="1.5"></path><path d="M1158.45 238.81L1129.52 495.46" stroke="hsl(228.5, 77.2%, 51.5%)" stroke-width="1.5"></path><path d="M1131.38 362.56L1131.38 362.56" stroke="hsl(228.5, 77.2%, 51.5%)" stroke-width="1.5"></path><path d="M1131.38 362.56L1129.52 495.46" stroke="hsl(228.5, 77.2%, 51.5%)" stroke-width="1.5"></path><path d="M1131.38 362.56L1265.65 511.15" stroke="hsl(228.5, 77.2%, 51.5%)" stroke-width="1.5"></path><path d="M1129.52 495.46L1129.52 495.46" stroke="hsl(228.5, 77.2%, 51.5%)" stroke-width="1.5"></path><path d="M1129.52 495.46L1265.65 511.15" stroke="hsl(228.5, 77.2%, 51.5%)" stroke-width="1.5"></path><path d="M1129.52 495.46L1137.86 681.44" stroke="hsl(228.5, 77.2%, 51.5%)" stroke-width="1.5"></path><path d="M1137.86 681.44L1137.86 681.44" stroke="hsl(228.5, 77.2%, 51.5%)" stroke-width="1.5"></path><path d="M1137.86 681.44L1304.81 667.4" stroke="hsl(228.5, 77.2%, 51.5%)" stroke-width="1.5"></path><path d="M1137.86 681.44L1265.65 511.15" stroke="hsl(228.5, 77.2%, 51.5%)" stroke-width="1.5"></path><path d="M1137.86 681.44L1398.54 645.33" stroke="hsl(228.5, 77.2%, 51.5%)" stroke-width="1.5"></path><path d="M1238.26 -93.6L1238.26 -93.6" stroke="hsl(228.5, 77.2%, 51.5%)" stroke-width="1.5"></path><path d="M1238.26 -93.6L1415.84 -50.43" stroke="hsl(228.5, 77.2%, 51.5%)" stroke-width="1.5"></path><path d="M1238.26 -93.6L1246.64 105.12" stroke="hsl(228.5, 77.2%, 51.5%)" stroke-width="1.5"></path><path d="M1238.26 -93.6L1413.4 39.76" stroke="hsl(228.5, 77.2%, 51.5%)" stroke-width="1.5"></path><path d="M1238.26 -93.6L1257.3 195.37" stroke="hsl(228.5, 77.2%, 51.5%)" stroke-width="1.5"></path><path d="M1238.26 -93.6L1540.7 -78.54" stroke="hsl(228.5, 77.2%, 51.5%)" stroke-width="1.5"></path><path d="M1246.64 105.12L1246.64 105.12" stroke="hsl(228.5, 77.2%, 51.5%)" stroke-width="1.5"></path><path d="M1246.64 105.12L1257.3 195.37" stroke="hsl(228.5, 77.2%, 51.5%)" stroke-width="1.5"></path><path d="M1246.64 105.12L1413.4 39.76" stroke="hsl(228.5, 77.2%, 51.5%)" stroke-width="1.5"></path><path d="M1246.64 105.12L1415.84 -50.43" stroke="hsl(228.5, 77.2%, 51.5%)" stroke-width="1.5"></path><path d="M1257.3 195.37L1257.3 195.37" stroke="hsl(228.5, 77.2%, 51.5%)" stroke-width="1.5"></path><path d="M1257.3 195.37L1459.1 236.26" stroke="hsl(228.5, 77.2%, 51.5%)" stroke-width="1.5"></path><path d="M1257.3 195.37L1131.38 362.56" stroke="hsl(228.5, 77.2%, 51.5%)" stroke-width="1.5"></path><path d="M1257.3 195.37L1413.4 39.76" stroke="hsl(228.5, 77.2%, 51.5%)" stroke-width="1.5"></path><path d="M1265.65 511.15L1265.65 511.15" stroke="hsl(228.5, 77.2%, 51.5%)" stroke-width="1.5"></path><path d="M1265.65 511.15L1401.53 488.93" stroke="hsl(228.5, 77.2%, 51.5%)" stroke-width="1.5"></path><path d="M1265.65 511.15L1304.81 667.4" stroke="hsl(228.5, 77.2%, 51.5%)" stroke-width="1.5"></path><path d="M1265.65 511.15L1398.54 645.33" stroke="hsl(228.5, 77.2%, 51.5%)" stroke-width="1.5"></path><path d="M1304.81 667.4L1304.81 667.4" stroke="hsl(228.5, 77.2%, 51.5%)" stroke-width="1.5"></path><path d="M1304.81 667.4L1398.54 645.33" stroke="hsl(228.5, 77.2%, 51.5%)" stroke-width="1.5"></path><path d="M1413.4 39.76L1413.4 39.76" stroke="hsl(228.5, 77.2%, 51.5%)" stroke-width="1.5"></path><path d="M1413.4 39.76L1552.01 79.19" stroke="hsl(228.5, 77.2%, 51.5%)" stroke-width="1.5"></path><path d="M1413.4 39.76L1540.7 -78.54" stroke="hsl(228.5, 77.2%, 51.5%)" stroke-width="1.5"></path><path d="M1438.9 378.16L1438.9 378.16" stroke="hsl(228.5, 77.2%, 51.5%)" stroke-width="1.5"></path><path d="M1438.9 378.16L1401.53 488.93" stroke="hsl(228.5, 77.2%, 51.5%)" stroke-width="1.5"></path><path d="M1438.9 378.16L1587.86 406.24" stroke="hsl(228.5, 77.2%, 51.5%)" stroke-width="1.5"></path><path d="M1401.53 488.93L1401.53 488.93" stroke="hsl(228.5, 77.2%, 51.5%)" stroke-width="1.5"></path><path d="M1401.53 488.93L1398.54 645.33" stroke="hsl(228.5, 77.2%, 51.5%)" stroke-width="1.5"></path><path d="M1401.53 488.93L1304.81 667.4" stroke="hsl(228.5, 77.2%, 51.5%)" stroke-width="1.5"></path><path d="M1398.54 645.33L1398.54 645.33" stroke="hsl(228.5, 77.2%, 51.5%)" stroke-width="1.5"></path><path d="M1540.7 -78.54L1540.7 -78.54" stroke="hsl(228.5, 77.2%, 51.5%)" stroke-width="1.5"></path><path d="M1540.7 -78.54L1415.84 -50.43" stroke="hsl(228.5, 77.2%, 51.5%)" stroke-width="1.5"></path><path d="M1540.7 -78.54L1552.01 79.19" stroke="hsl(228.5, 77.2%, 51.5%)" stroke-width="1.5"></path><path d="M1540.7 -78.54L1575.06 213.65" stroke="hsl(228.5, 77.2%, 51.5%)" stroke-width="1.5"></path><path d="M1552.01 79.19L1552.01 79.19" stroke="hsl(228.5, 77.2%, 51.5%)" stroke-width="1.5"></path><path d="M1552.01 79.19L1575.06 213.65" stroke="hsl(228.5, 77.2%, 51.5%)" stroke-width="1.5"></path><path d="M1575.06 213.65L1575.06 213.65" stroke="hsl(228.5, 77.2%, 51.5%)" stroke-width="1.5"></path><path d="M1575.06 213.65L1587.86 406.24" stroke="hsl(228.5, 77.2%, 51.5%)" stroke-width="1.5"></path><path d="M1575.06 213.65L1438.9 378.16" stroke="hsl(228.5, 77.2%, 51.5%)" stroke-width="1.5"></path><path d="M1575.06 213.65L1413.4 39.76" stroke="hsl(228.5, 77.2%, 51.5%)" stroke-width="1.5"></path><path d="M1587.86 406.24L1587.86 406.24" stroke="hsl(228.5, 77.2%, 51.5%)" stroke-width="1.5"></path><circle r="25" cx="653.75" cy="499.03" fill="url(#SvgjsRadialGradient1021)"></circle><circle r="25" cx="641.49" cy="685.94" fill="url(#SvgjsRadialGradient1021)"></circle><circle r="25" cx="1415.84" cy="-50.43" fill="url(#SvgjsRadialGradient1021)"></circle><circle r="25" cx="1459.1" cy="236.26" fill="url(#SvgjsRadialGradient1021)"></circle><circle r="25" cx="1609.56" cy="550.02" fill="url(#SvgjsRadialGradient1021)"></circle><circle r="25" cx="1580.73" cy="650.42" fill="url(#SvgjsRadialGradient1021)"></circle><circle r="5" cx="-39.03" cy="545.05" fill="#8b9ad9"></circle><circle r="5" cx="71.68" cy="491.57" fill="#8b9ad9"></circle><circle r="5" cx="41.77" cy="668.31" fill="#8b9ad9"></circle><circle r="5" cx="244.9" cy="506.6" fill="#8b9ad9"></circle><circle r="5" cx="255.9" cy="638.46" fill="#8b9ad9"></circle><circle r="5" cx="405.22" cy="502.88" fill="#8b9ad9"></circle><circle r="5" cx="404.39" cy="693.63" fill="#8b9ad9"></circle><circle r="5" cx="530.48" cy="490.13" fill="#8b9ad9"></circle><circle r="5" cx="519.52" cy="643.74" fill="#8b9ad9"></circle><circle r="5" cx="703.75" cy="398.58" fill="#8b9ad9"></circle><circle r="5" cx="847.71" cy="340.24" fill="#8b9ad9"></circle><circle r="5" cx="811.92" cy="504.12" fill="#8b9ad9"></circle><circle r="5" cx="790.46" cy="667.14" fill="#8b9ad9"></circle><circle r="5" cx="973.15" cy="410.91" fill="#8b9ad9"></circle><circle r="5" cx="972.69" cy="530.75" fill="#8b9ad9"></circle><circle r="5" cx="939" cy="654.98" fill="#8b9ad9"></circle><circle r="5" cx="1160.96" cy="47.27" fill="#8b9ad9"></circle><circle r="5" cx="1158.45" cy="238.81" fill="#8b9ad9"></circle><circle r="5" cx="1131.38" cy="362.56" fill="#8b9ad9"></circle><circle r="5" cx="1129.52" cy="495.46" fill="#8b9ad9"></circle><circle r="5" cx="1137.86" cy="681.44" fill="#8b9ad9"></circle><circle r="5" cx="1238.26" cy="-93.6" fill="#8b9ad9"></circle><circle r="5" cx="1246.64" cy="105.12" fill="#8b9ad9"></circle><circle r="5" cx="1257.3" cy="195.37" fill="#8b9ad9"></circle><circle r="5" cx="1265.65" cy="511.15" fill="#8b9ad9"></circle><circle r="5" cx="1304.81" cy="667.4" fill="#8b9ad9"></circle><circle r="5" cx="1413.4" cy="39.76" fill="#8b9ad9"></circle><circle r="5" cx="1438.9" cy="378.16" fill="#8b9ad9"></circle><circle r="5" cx="1401.53" cy="488.93" fill="#8b9ad9"></circle><circle r="5" cx="1398.54" cy="645.33" fill="#8b9ad9"></circle><circle r="5" cx="1540.7" cy="-78.54" fill="#8b9ad9"></circle><circle r="5" cx="1552.01" cy="79.19" fill="#8b9ad9"></circle><circle r="5" cx="1575.06" cy="213.65" fill="#8b9ad9"></circle><circle r="5" cx="1587.86" cy="406.24" fill="#8b9ad9"></circle></g><defs><mask id="SvgjsMask1019"><rect width="1437" height="560" fill="#ffffff"></rect></mask><linearGradient x1="15.26%" y1="-39.15%" x2="84.74%" y2="139.15%" gradientUnits="userSpaceOnUse" id="SvgjsLinearGradient1020"><stop stop-color="#0e2a47" offset="0"></stop><stop stop-color="#00459e" offset="1"></stop></linearGradient><radialGradient id="SvgjsRadialGradient1021"><stop stop-color="#ffffff" offset="0.1"></stop><stop stop-color="#1735b3" offset="0.2"></stop><stop stop-color="rgba(23, 53, 179, 0)" offset="1"></stop></radialGradient></defs></svg>